# AST/ASF file generated using VICON BodyLanguage
# -----------------------------------------------
:version 1.10
:name VICON
:units
  mass 1.0
  length 0.45
  angle deg
:documentation
   .ast/.asf automatically generated from VICON data using
   VICON BodyBuilder and BodyLanguage model FoxedUp or BRILLIANT.MOD
:root
   order TX TY TZ RX RY RZ
   axis XYZ
   position 0 0 0  
   orientation 0 0 0 
:bonedata
  begin
     id 1 
     name lhipjoint
     direction 0.578396 -0.714046 0.394458 
     length 2.21935 
     axis 0 0 0  XYZ
  end
  begin
     id 2 
     name lfemur
     direction 0.34202 -0.939693 0  
     length 6.39105  
     axis 0 0 20  XYZ
    dof rx ry rz
    limits (-160.0 20.0)
           (-70.0 70.0)
           (-60.0 70.0)
  end
  begin
     id 3 
     name ltibia
     direction 0.34202 -0.939693 0   
     length 6.99037   
     axis 0 0 20   XYZ
    dof rx
    limits (-10.0 170.0)
  end
  begin
     id 4 
     name lfoot
     direction 0.0582372 -0.160005 0.985397   
     length 2.06111   
     axis -90 7.62852e-016 20   XYZ
    dof rx rz
    limits (-45.0 90.0)
           (-70.0 20.0)
  end
  begin
     id 5 
     name ltoes
     direction 1.53556e-011 -4.21875e-011 1   
     length 1.04074   
     axis -90 7.62852e-016 20   XYZ
    dof rx
    limits (-90.0 20.0)
  end
  begin
     id 6 
     name rhipjoint
     direction -0.558179 -0.726269 0.40121   
     length 2.182  
     axis 0 0 0  XYZ 
  end
  begin
     id 7 
     name rfemur
     direction -0.34202 -0.939693 0   
     length 6.51172   
     axis 0 0 -20   XYZ
    dof rx ry rz
    limits (-160.0 20.0)
           (-70.0 70.0)
           (-70.0 60.0)
  end
  begin
     id 8 
     name rtibia
     direction -0.34202 -0.939693 0   
     length 7.02607   
     axis 0 0 -20   XYZ
    dof rx
    limits (-10.0 170.0)
 end
 begin
     id 9 
     name rfoot
     direction -0.0788856 -0.216737 0.973038   
     length 1.96734  
     axis -90 -7.62852e-016 -20   XYZ
    dof rx rz
    limits (-45.0 90.0)
           (-20.0 70.0)
  end
  begin
     id 10 
     name rtoes
     direction -1.53567e-011 -4.21783e-011 1   
     length 0.990825   
     axis -90 -7.62852e-016 -20   XYZ
    dof rx
    limits (-90.0 20.0)
  end
  begin
     id 11 
     name lowerback
     direction 0.00668177 0.999323 -0.0361741   
     length 1.7655   
     axis 0 0 0   XYZ
    dof rx ry rz
    limits (-20.0 45.0)
           (-30.0 30.0)
           (-30.0 30.0)
  end
  begin
     id 12 
     name upperback
     direction -0.00222086 0.99851 0.0545167   
     length 1.74912   
     axis 0 0 0   XYZ
    dof rx ry rz
    limits (-20.0 45.0)
           (-30.0 30.0)
           (-30.0 30.0)
  end
  begin
     id 13 
     name thorax
     direction -0.00733971 0.997496 0.0703443   
     length 1.75715   
     axis 0 0 0   XYZ
    dof rx ry rz
    limits (-20.0 45.0)
           (-30.0 30.0)
           (-30.0 30.0)
  end
  begin
     id 14 
     name lowerneck
     direction 0.0279797 0.994795 0.0979765   
     length 1.46939   
     axis 0 0 0   XYZ
    dof rx ry rz
    limits (-20.0 45.0)
           (-30.0 30.0)
           (-30.0 30.0)
  end
  begin
     id 15 
     name upperneck
     direction 0.00339187 0.976776 -0.214238   
     length 1.48018   
     axis 0 0 0   XYZ
    dof rx ry rz
    limits (-20.0 45.0)
           (-30.0 30.0)
           (-30.0 30.0)
  end
  begin
     id 16
     name head
     direction -0.00263506 0.996603 -0.0823096  
     length 1.4976  
     axis 0 0 0   XYZ
    dof rx ry rz
    limits (-20.0 45.0)
           (-30.0 30.0)
           (-30.0 30.0)
  end
  begin
     id 17 
     name lclavicle
     direction 0.894044 0.44508 -0.0508781  
     length 3.03024  
     axis 0 0 0   XYZ
    dof ry rz
    limits (-20.0 10.0)
           (0.0 20.0)
  end
  begin
     id 18 
     name lhumerus
     direction 1 -4.48961e-011 -2.39475e-018   
     length 4.4661   
     axis 180 -30 -90   XYZ
    dof rx ry rz
    limits (-60.0 90.0)
           (-90.0 90.0)
           (-90.0 90.0)
  end
  begin
     id 19
     name lradius
     direction 1 -4.48961e-011 9.29328e-028   
     length 3.41414   
     axis 180 -30 -90   XYZ
    dof rx
    limits (-10.0 170.0)
  end
  begin
     id 20
     name lwrist
     direction 1 -4.48985e-011 1.53461e-026   
     length 1.70707   
     axis -1.09697e-014 90 90   XYZ
    dof ry
    limits (-180.0 0.0)
 end
  begin
     id 21 
     name lhand
     direction 1 -4.48966e-011 3.06923e-026   
     length 0.328298   
     axis -1.95843e-014 90 90   XYZ
    dof rx rz
    limits (-90.0 90.0)
           (-45.0 45.0)
  end
  begin
     id 22 
     name lfingers
     direction 1 -4.48893e-011 6.13845e-026   
     length 0.264682   
     axis -3.91686e-014 90 90   XYZ
    dof rx
    limits (0.0 90.0)
  end
  begin
     id 23
     name lthumb
     direction 0.707107 -6.34876e-011 0.707107   
     length 0.380032   
     axis -90 45 2.85299e-015   XYZ
    dof rx rz
    limits (-45.0 45.0)
           (-45.0 45.0)
  end
  begin
     id 24 
     name rclavicle
     direction -0.936955 0.347862 -0.0332887   
     length 3.26927  
     axis 0 0 0   XYZ 
    dof ry rz
    limits (-10.0 20.0)
           (-20.0 0.0)
  end
  begin
     id 25 
     name rhumerus
     direction -1 -4.4896e-011 1.78637e-018  
     length 4.40431   
     axis 180 30 90   XYZ
    dof rx ry rz
    limits (-90.0 60.0)
           (-90.0 90.0)
           (-90.0 90.0)
  end
  begin
     id 26 
     name rradius
     direction -1 -4.48955e-011 9.34036e-027   
     length 3.04688   
     axis 180 30 90   XYZ
    dof rx
    limits (-10.0 170.0)
  end
  begin
     id 27 
     name rwrist
     direction -1 -4.49011e-011 1.53461e-026   
     length 1.52344   
     axis -1.09697e-014 -90 -90   XYZ
    dof ry
    limits (-180.0 0.0)
  end
  begin
     id 28
     name rhand
     direction -1 -4.48834e-011 3.06923e-026   
     length 0.500489   
     axis -1.95843e-014 -90 -90   XYZ
    dof rx rz
    limits (-90.0 90.0)
           (-45.0 45.0)
  end
  begin
     id 29
     name rfingers
     direction -1 -4.48967e-011 6.13845e-026   
     length 0.403507   
     axis -3.91686e-014 -90 -90   XYZ
    dof rx
    limits (0.0 90.0)
  end
  begin
     id 30
     name rthumb
     direction -0.707107 -6.34826e-011 0.707107   
     length 0.579358   
     axis -90 -45 -2.85299e-015   XYZ
    dof rx rz
    limits (-45.0 45.0)
           (-45.0 45.0)
  end
:hierarchy
  begin
    root lhipjoint rhipjoint lowerback
    lhipjoint lfemur
    lfemur ltibia
    ltibia lfoot
    lfoot ltoes
    rhipjoint rfemur
    rfemur rtibia
    rtibia rfoot
    rfoot rtoes
    lowerback upperback
    upperback thorax
    thorax lowerneck lclavicle rclavicle
    lowerneck upperneck
    upperneck head
    lclavicle lhumerus
    lhumerus lradius
    lradius lwrist
    lwrist lhand lthumb
    lhand lfingers
    rclavicle rhumerus
    rhumerus rradius
    rradius rwrist
    rwrist rhand rthumb
    rhand rfingers
  end

#!OML:ASF H:\IndianDance\Patient Classification 1\Patient 1\Session 1\dancer.ASF
:FULLY-SPECIFIED
:DEGREES
86
root 25.1984 13.6022 -1.03358 -171.962 -1.65937 -176.401
lowerback 4.37532 2.46893 2.69851
upperback -7.28914 3.20104 -0.0377797
thorax -10.0407 1.18382 -1.93084
lowerneck -18.1829 -1.51704 -3.53964
upperneck 21.6095 -2.97963 5.63989
head 10.0226 -1.1983 2.1304
rclavicle 1.35422e-014 7.7526e-015
rhumerus -6.37949 62.4118 -30.8409
rradius 107.571
rwrist 0.261821
rhand -29.0771 32.7551
rfingers 7.12502
rthumb -2.42615 2.78918
lclavicle 1.35422e-014 7.7526e-015
lhumerus 15.9807 -62.6941 4.78512
lradius 113.279
lwrist 16.1044
lhand -30.0627 -5.98318
lfingers 7.12502
lthumb -3.37799 23.9698
rfemur -40.4538 -37.6333 25.4971
rtibia 72.0366
rfoot -31.1098 -11.8122
rtoes 4.76344
lfemur -43.8064 24.6112 -20.1481
ltibia 77.9215
lfoot -27.1538 -0.53152
ltoes 4.08682
87
root 25.1738 13.6287 -1.02566 -171.943 -1.84854 -176.458
lowerback 4.4465 2.4548 2.66509
upperback -7.26803 3.18508 -0.0479512
thorax -10.0619 1.17998 -1.9243
lowerneck -18.2334 -1.47113 -3.55472
upperneck 21.6144 -2.9171 5.68084
head 10.0313 -1.16386 2.15645
rclavicle -3.85891e-014 -3.77691e-015
rhumerus -6.428 62.3444 -30.9539
rradius 107.647
rwrist 0.109401
rhand -28.5523 32.0822
rfingers 7.12502
rthumb -1.91933 2.11108
lclavicle -3.85891e-014 -3.77691e-015
lhumerus 15.6623 -62.2975 5.21221
lradius 113.498
lwrist 16.6845
lhand -28.103 -5.17547
lfingers 7.12502
lthumb -1.48538 24.7991
rfemur -40.2617 -37.4609 25.3288
rtibia 71.5966
rfoot -30.8128 -12.0572
rtoes 4.72284
lfemur -44.0317 24.0975 -19.9539
ltibia 78.1696
lfoot -26.1872 -1.76508
ltoes 5.20997
88
root 25.147 13.6547 -1.01668 -171.93 -2.10883 -176.321
lowerback 4.53872 2.45863 2.84083
upperback -7.24286 3.21906 0.00266024
thorax -10.0816 1.18701 -1.97652
lowerneck -18.3358 -1.45511 -3.58743
upperneck 21.6181 -2.87609 5.68483
head 10.0502 -1.14259 2.1696
rclavicle -9.69075e-016 1.78906e-015
rhumerus -6.57118 62.1945 -31.0604
rradius 107.705
rwrist -0.0907024
rhand -27.8706 31.5081
rfingers 7.12502
rthumb -1.26098 1.53206
lclavicle -9.69075e-016 1.78906e-015
lhumerus 15.5585 -61.8326 5.58334
lradius 113.71
lwrist 17.5235
lhand -25.7723 -4.52958
lfingers 7.12502
lthumb 0.765677 25.4488
rfemur -40.0696 -37.3553 25.3956
rtibia 71.1366
rfoot -30.5171 -12.3321
rtoes 4.63715
lfemur -44.2961 23.554 -19.5095
ltibia 78.4344
lfoot -25.2723 -2.86394
ltoes 5.95564
89
root 25.1209 13.6831 -1.00981 -171.924 -2.33453 -176.296
lowerback 4.60145 2.40576 2.85888
upperback -7.22445 3.15583 0.00859787
thorax -10.1016 1.15654 -1.97506
lowerneck -18.4222 -1.35123 -3.41107
upperneck 21.6813 -2.76091 5.59701
head 10.0791 -1.08304 2.12578
rclavicle 8.69683e-016 -6.75868e-015
rhumerus -6.54208 62.1525 -31.1591
rradius 107.793
rwrist -0.337168
rhand -27.127 30.8656
rfingers 7.12502
rthumb -0.542787 0.886531
lclavicle 8.69683e-016 -6.75868e-015
lhumerus 15.0405 -61.4153 6.07265
lradius 113.94
lwrist 18.0841
lhand -23.5478 -4.04452
lfingers 7.12502
lthumb 2.91406 25.9153
rfemur -39.8549 -37.2524 25.3334
rtibia 70.6801
rfoot -30.2048 -12.6401
rtoes 4.53948
lfemur -44.5202 22.9672 -19.1432
ltibia 78.6566
lfoot -24.4336 -3.98418
ltoes 7.07794
90
root 25.0915 13.7101 -1.00344 -171.893 -2.60213 -176.236
lowerback 4.64802 2.37342 2.90663
upperback -7.20727 3.12528 0.0572811
thorax -10.1125 1.14133 -1.94784
lowerneck -18.4789 -1.30086 -3.42848
upperneck 21.6738 -2.6848 5.62258
head 10.0837 -1.04358 2.14879
rclavicle 2.58172e-014 9.54166e-015
rhumerus -6.54143 62.0619 -31.2096
rradius 107.805
rwrist -0.51643
rhand -26.3967 30.3222
rfingers 7.12502
rthumb 0.162572 0.342552
lclavicle 2.58172e-014 9.54166e-015
lhumerus 14.6618 -60.9661 6.59901
lradius 114.098
lwrist 18.5347
lhand -21.2684 -3.60056
lfingers 7.12502
lthumb 5.11518 26.3177
rfemur -39.6827 -37.2187 25.3176
rtibia 70.2215
rfoot -29.9487 -12.8278
rtoes 4.93551
lfemur -44.7608 22.3366 -18.6904
ltibia 78.7936
lfoot -23.7957 -5.08903
ltoes 7.5466
